<mxfile host="app.diagrams.net" modified="2023-03-06T01:54:30.363Z" agent="5.0 (Windows NT 10.0; WOW64) AppleWebKit/537.36 (KHTML, like Gecko) Chrome/83.0.4103.97 Safari/537.36" etag="esxR9XGvm4JmcaJ4zB_Y" version="20.8.23" type="github">
  <diagram name="第 1 页" id="qjFskZTH7nhfMQvm9-LZ">
    <mxGraphModel dx="1768" dy="465" grid="1" gridSize="10" guides="1" tooltips="1" connect="1" arrows="1" fold="1" page="1" pageScale="1" pageWidth="827" pageHeight="1169" math="0" shadow="0">
      <root>
        <mxCell id="0" />
        <mxCell id="1" parent="0" />
        <mxCell id="2L5aRqluguBSYu4qJ3mD-14" value="" style="swimlane;startSize=0;" vertex="1" parent="1">
          <mxGeometry x="-150" y="110" width="340" height="200" as="geometry" />
        </mxCell>
        <mxCell id="2L5aRqluguBSYu4qJ3mD-16" style="edgeStyle=orthogonalEdgeStyle;rounded=0;orthogonalLoop=1;jettySize=auto;html=1;entryX=0;entryY=0.5;entryDx=0;entryDy=0;" edge="1" parent="2L5aRqluguBSYu4qJ3mD-14" source="2L5aRqluguBSYu4qJ3mD-12" target="2L5aRqluguBSYu4qJ3mD-13">
          <mxGeometry relative="1" as="geometry" />
        </mxCell>
        <mxCell id="2L5aRqluguBSYu4qJ3mD-12" value="订单管理" style="rounded=0;whiteSpace=wrap;html=1;" vertex="1" parent="2L5aRqluguBSYu4qJ3mD-14">
          <mxGeometry x="30" y="70" width="120" height="60" as="geometry" />
        </mxCell>
        <mxCell id="2L5aRqluguBSYu4qJ3mD-13" value="订单明细" style="rounded=0;whiteSpace=wrap;html=1;" vertex="1" parent="2L5aRqluguBSYu4qJ3mD-14">
          <mxGeometry x="190" y="70" width="120" height="60" as="geometry" />
        </mxCell>
        <mxCell id="2L5aRqluguBSYu4qJ3mD-15" value="" style="swimlane;startSize=0;" vertex="1" parent="1">
          <mxGeometry x="240" y="330" width="470" height="250" as="geometry" />
        </mxCell>
        <mxCell id="2L5aRqluguBSYu4qJ3mD-31" style="edgeStyle=orthogonalEdgeStyle;rounded=0;orthogonalLoop=1;jettySize=auto;html=1;entryX=0.5;entryY=0;entryDx=0;entryDy=0;strokeColor=#000000;" edge="1" parent="2L5aRqluguBSYu4qJ3mD-15" source="2L5aRqluguBSYu4qJ3mD-1" target="2L5aRqluguBSYu4qJ3mD-4">
          <mxGeometry relative="1" as="geometry" />
        </mxCell>
        <mxCell id="2L5aRqluguBSYu4qJ3mD-1" value="应用管理" style="rounded=0;whiteSpace=wrap;html=1;" vertex="1" parent="2L5aRqluguBSYu4qJ3mD-15">
          <mxGeometry x="300" y="50" width="120" height="60" as="geometry" />
        </mxCell>
        <mxCell id="2L5aRqluguBSYu4qJ3mD-4" value="应用信息" style="rounded=0;whiteSpace=wrap;html=1;" vertex="1" parent="2L5aRqluguBSYu4qJ3mD-15">
          <mxGeometry x="300" y="155" width="120" height="60" as="geometry" />
        </mxCell>
        <mxCell id="2L5aRqluguBSYu4qJ3mD-5" value="规格信息" style="rounded=0;whiteSpace=wrap;html=1;" vertex="1" parent="2L5aRqluguBSYu4qJ3mD-15">
          <mxGeometry x="70" y="50" width="120" height="60" as="geometry" />
        </mxCell>
        <mxCell id="2L5aRqluguBSYu4qJ3mD-11" style="edgeStyle=orthogonalEdgeStyle;rounded=0;orthogonalLoop=1;jettySize=auto;html=1;" edge="1" parent="2L5aRqluguBSYu4qJ3mD-15" source="2L5aRqluguBSYu4qJ3mD-1" target="2L5aRqluguBSYu4qJ3mD-5">
          <mxGeometry relative="1" as="geometry" />
        </mxCell>
        <mxCell id="2L5aRqluguBSYu4qJ3mD-18" value="" style="swimlane;startSize=0;" vertex="1" parent="1">
          <mxGeometry x="240" y="110" width="470" height="200" as="geometry" />
        </mxCell>
        <mxCell id="2L5aRqluguBSYu4qJ3mD-7" value="活动明细" style="rounded=0;whiteSpace=wrap;html=1;" vertex="1" parent="2L5aRqluguBSYu4qJ3mD-18">
          <mxGeometry x="70" y="120" width="120" height="60" as="geometry" />
        </mxCell>
        <mxCell id="2L5aRqluguBSYu4qJ3mD-27" style="edgeStyle=orthogonalEdgeStyle;rounded=0;orthogonalLoop=1;jettySize=auto;html=1;strokeColor=#000000;" edge="1" parent="2L5aRqluguBSYu4qJ3mD-18" source="2L5aRqluguBSYu4qJ3mD-2" target="2L5aRqluguBSYu4qJ3mD-7">
          <mxGeometry relative="1" as="geometry" />
        </mxCell>
        <mxCell id="2L5aRqluguBSYu4qJ3mD-29" style="edgeStyle=orthogonalEdgeStyle;rounded=0;orthogonalLoop=1;jettySize=auto;html=1;entryX=1;entryY=0.5;entryDx=0;entryDy=0;strokeColor=#000000;" edge="1" parent="2L5aRqluguBSYu4qJ3mD-18" source="2L5aRqluguBSYu4qJ3mD-2" target="2L5aRqluguBSYu4qJ3mD-6">
          <mxGeometry relative="1" as="geometry" />
        </mxCell>
        <mxCell id="2L5aRqluguBSYu4qJ3mD-2" value="活动管理" style="rounded=0;whiteSpace=wrap;html=1;" vertex="1" parent="2L5aRqluguBSYu4qJ3mD-18">
          <mxGeometry x="310" y="120" width="120" height="60" as="geometry" />
        </mxCell>
        <mxCell id="2L5aRqluguBSYu4qJ3mD-6" value="活动配置" style="rounded=0;whiteSpace=wrap;html=1;" vertex="1" parent="2L5aRqluguBSYu4qJ3mD-18">
          <mxGeometry x="70" y="40" width="120" height="60" as="geometry" />
        </mxCell>
        <mxCell id="2L5aRqluguBSYu4qJ3mD-20" style="edgeStyle=orthogonalEdgeStyle;rounded=0;orthogonalLoop=1;jettySize=auto;html=1;entryX=0;entryY=0.5;entryDx=0;entryDy=0;strokeColor=#FF0818;" edge="1" parent="1" source="2L5aRqluguBSYu4qJ3mD-13" target="2L5aRqluguBSYu4qJ3mD-5">
          <mxGeometry relative="1" as="geometry">
            <Array as="points">
              <mxPoint x="100" y="410" />
            </Array>
          </mxGeometry>
        </mxCell>
        <mxCell id="2L5aRqluguBSYu4qJ3mD-23" style="edgeStyle=orthogonalEdgeStyle;rounded=0;orthogonalLoop=1;jettySize=auto;html=1;strokeColor=#FF0818;" edge="1" parent="1" source="2L5aRqluguBSYu4qJ3mD-13" target="2L5aRqluguBSYu4qJ3mD-7">
          <mxGeometry relative="1" as="geometry" />
        </mxCell>
        <mxCell id="2L5aRqluguBSYu4qJ3mD-32" style="edgeStyle=orthogonalEdgeStyle;rounded=0;orthogonalLoop=1;jettySize=auto;html=1;strokeColor=#2B41FF;" edge="1" parent="1" source="2L5aRqluguBSYu4qJ3mD-7" target="2L5aRqluguBSYu4qJ3mD-5">
          <mxGeometry relative="1" as="geometry" />
        </mxCell>
      </root>
    </mxGraphModel>
  </diagram>
</mxfile>
